<svg xmlns="http://www.w3.org/2000/svg" viewBox="0 0 32 16" width="32" height="16" shape-rendering="crispEdges">
<!-- floor_tile — 32x16 px. Generated by scripts/gen_sprites.py; edit
     the ASCII grid there, not this file. Palette: Barnlight-29
     (docs/design/ART_DIRECTION.md). Colours used here: -->
<!--   K = outline #241A12 -->
<!--   L = wood-light #9C7248 -->
<!--   W = wood-mid #7A5636 -->
<!--   w = wood-shadow #5A3F28 -->
<!-- y=00 -->
<rect x="14" y="0" width="1" height="1" fill="#241A12"/>
<rect x="15" y="0" width="1" height="1" fill="#241A12"/>
<rect x="16" y="0" width="1" height="1" fill="#241A12"/>
<rect x="17" y="0" width="1" height="1" fill="#241A12"/>
<!-- y=01 -->
<rect x="12" y="1" width="1" height="1" fill="#241A12"/>
<rect x="13" y="1" width="1" height="1" fill="#241A12"/>
<rect x="14" y="1" width="1" height="1" fill="#9C7248"/>
<rect x="15" y="1" width="1" height="1" fill="#9C7248"/>
<rect x="16" y="1" width="1" height="1" fill="#9C7248"/>
<rect x="17" y="1" width="1" height="1" fill="#9C7248"/>
<rect x="18" y="1" width="1" height="1" fill="#241A12"/>
<rect x="19" y="1" width="1" height="1" fill="#241A12"/>
<!-- y=02 -->
<rect x="10" y="2" width="1" height="1" fill="#241A12"/>
<rect x="11" y="2" width="1" height="1" fill="#241A12"/>
<rect x="12" y="2" width="1" height="1" fill="#9C7248"/>
<rect x="13" y="2" width="1" height="1" fill="#9C7248"/>
<rect x="14" y="2" width="1" height="1" fill="#9C7248"/>
<rect x="15" y="2" width="1" height="1" fill="#9C7248"/>
<rect x="16" y="2" width="1" height="1" fill="#9C7248"/>
<rect x="17" y="2" width="1" height="1" fill="#9C7248"/>
<rect x="18" y="2" width="1" height="1" fill="#9C7248"/>
<rect x="19" y="2" width="1" height="1" fill="#9C7248"/>
<rect x="20" y="2" width="1" height="1" fill="#241A12"/>
<rect x="21" y="2" width="1" height="1" fill="#241A12"/>
<!-- y=03 -->
<rect x="8" y="3" width="1" height="1" fill="#241A12"/>
<rect x="9" y="3" width="1" height="1" fill="#241A12"/>
<rect x="10" y="3" width="1" height="1" fill="#5A3F28"/>
<rect x="11" y="3" width="1" height="1" fill="#5A3F28"/>
<rect x="12" y="3" width="1" height="1" fill="#5A3F28"/>
<rect x="13" y="3" width="1" height="1" fill="#5A3F28"/>
<rect x="14" y="3" width="1" height="1" fill="#5A3F28"/>
<rect x="15" y="3" width="1" height="1" fill="#5A3F28"/>
<rect x="16" y="3" width="1" height="1" fill="#5A3F28"/>
<rect x="17" y="3" width="1" height="1" fill="#5A3F28"/>
<rect x="18" y="3" width="1" height="1" fill="#5A3F28"/>
<rect x="19" y="3" width="1" height="1" fill="#5A3F28"/>
<rect x="20" y="3" width="1" height="1" fill="#5A3F28"/>
<rect x="21" y="3" width="1" height="1" fill="#5A3F28"/>
<rect x="22" y="3" width="1" height="1" fill="#241A12"/>
<rect x="23" y="3" width="1" height="1" fill="#241A12"/>
<!-- y=04 -->
<rect x="6" y="4" width="1" height="1" fill="#241A12"/>
<rect x="7" y="4" width="1" height="1" fill="#241A12"/>
<rect x="8" y="4" width="1" height="1" fill="#7A5636"/>
<rect x="9" y="4" width="1" height="1" fill="#7A5636"/>
<rect x="10" y="4" width="1" height="1" fill="#7A5636"/>
<rect x="11" y="4" width="1" height="1" fill="#7A5636"/>
<rect x="12" y="4" width="1" height="1" fill="#7A5636"/>
<rect x="13" y="4" width="1" height="1" fill="#7A5636"/>
<rect x="14" y="4" width="1" height="1" fill="#7A5636"/>
<rect x="15" y="4" width="1" height="1" fill="#7A5636"/>
<rect x="16" y="4" width="1" height="1" fill="#7A5636"/>
<rect x="17" y="4" width="1" height="1" fill="#7A5636"/>
<rect x="18" y="4" width="1" height="1" fill="#5A3F28"/>
<rect x="19" y="4" width="1" height="1" fill="#7A5636"/>
<rect x="20" y="4" width="1" height="1" fill="#7A5636"/>
<rect x="21" y="4" width="1" height="1" fill="#7A5636"/>
<rect x="22" y="4" width="1" height="1" fill="#7A5636"/>
<rect x="23" y="4" width="1" height="1" fill="#7A5636"/>
<rect x="24" y="4" width="1" height="1" fill="#241A12"/>
<rect x="25" y="4" width="1" height="1" fill="#241A12"/>
<!-- y=05 -->
<rect x="4" y="5" width="1" height="1" fill="#241A12"/>
<rect x="5" y="5" width="1" height="1" fill="#241A12"/>
<rect x="6" y="5" width="1" height="1" fill="#7A5636"/>
<rect x="7" y="5" width="1" height="1" fill="#7A5636"/>
<rect x="8" y="5" width="1" height="1" fill="#7A5636"/>
<rect x="9" y="5" width="1" height="1" fill="#7A5636"/>
<rect x="10" y="5" width="1" height="1" fill="#7A5636"/>
<rect x="11" y="5" width="1" height="1" fill="#5A3F28"/>
<rect x="12" y="5" width="1" height="1" fill="#7A5636"/>
<rect x="13" y="5" width="1" height="1" fill="#7A5636"/>
<rect x="14" y="5" width="1" height="1" fill="#7A5636"/>
<rect x="15" y="5" width="1" height="1" fill="#7A5636"/>
<rect x="16" y="5" width="1" height="1" fill="#7A5636"/>
<rect x="17" y="5" width="1" height="1" fill="#7A5636"/>
<rect x="18" y="5" width="1" height="1" fill="#7A5636"/>
<rect x="19" y="5" width="1" height="1" fill="#7A5636"/>
<rect x="20" y="5" width="1" height="1" fill="#7A5636"/>
<rect x="21" y="5" width="1" height="1" fill="#7A5636"/>
<rect x="22" y="5" width="1" height="1" fill="#7A5636"/>
<rect x="23" y="5" width="1" height="1" fill="#7A5636"/>
<rect x="24" y="5" width="1" height="1" fill="#7A5636"/>
<rect x="25" y="5" width="1" height="1" fill="#7A5636"/>
<rect x="26" y="5" width="1" height="1" fill="#241A12"/>
<rect x="27" y="5" width="1" height="1" fill="#241A12"/>
<!-- y=06 -->
<rect x="2" y="6" width="1" height="1" fill="#241A12"/>
<rect x="3" y="6" width="1" height="1" fill="#241A12"/>
<rect x="4" y="6" width="1" height="1" fill="#5A3F28"/>
<rect x="5" y="6" width="1" height="1" fill="#7A5636"/>
<rect x="6" y="6" width="1" height="1" fill="#7A5636"/>
<rect x="7" y="6" width="1" height="1" fill="#7A5636"/>
<rect x="8" y="6" width="1" height="1" fill="#7A5636"/>
<rect x="9" y="6" width="1" height="1" fill="#7A5636"/>
<rect x="10" y="6" width="1" height="1" fill="#7A5636"/>
<rect x="11" y="6" width="1" height="1" fill="#7A5636"/>
<rect x="12" y="6" width="1" height="1" fill="#7A5636"/>
<rect x="13" y="6" width="1" height="1" fill="#7A5636"/>
<rect x="14" y="6" width="1" height="1" fill="#7A5636"/>
<rect x="15" y="6" width="1" height="1" fill="#7A5636"/>
<rect x="16" y="6" width="1" height="1" fill="#7A5636"/>
<rect x="17" y="6" width="1" height="1" fill="#7A5636"/>
<rect x="18" y="6" width="1" height="1" fill="#7A5636"/>
<rect x="19" y="6" width="1" height="1" fill="#7A5636"/>
<rect x="20" y="6" width="1" height="1" fill="#7A5636"/>
<rect x="21" y="6" width="1" height="1" fill="#7A5636"/>
<rect x="22" y="6" width="1" height="1" fill="#7A5636"/>
<rect x="23" y="6" width="1" height="1" fill="#7A5636"/>
<rect x="24" y="6" width="1" height="1" fill="#7A5636"/>
<rect x="25" y="6" width="1" height="1" fill="#7A5636"/>
<rect x="26" y="6" width="1" height="1" fill="#7A5636"/>
<rect x="27" y="6" width="1" height="1" fill="#5A3F28"/>
<rect x="28" y="6" width="1" height="1" fill="#241A12"/>
<rect x="29" y="6" width="1" height="1" fill="#241A12"/>
<!-- y=07 -->
<rect x="0" y="7" width="1" height="1" fill="#241A12"/>
<rect x="1" y="7" width="1" height="1" fill="#241A12"/>
<rect x="2" y="7" width="1" height="1" fill="#5A3F28"/>
<rect x="3" y="7" width="1" height="1" fill="#5A3F28"/>
<rect x="4" y="7" width="1" height="1" fill="#5A3F28"/>
<rect x="5" y="7" width="1" height="1" fill="#5A3F28"/>
<rect x="6" y="7" width="1" height="1" fill="#5A3F28"/>
<rect x="7" y="7" width="1" height="1" fill="#5A3F28"/>
<rect x="8" y="7" width="1" height="1" fill="#5A3F28"/>
<rect x="9" y="7" width="1" height="1" fill="#5A3F28"/>
<rect x="10" y="7" width="1" height="1" fill="#5A3F28"/>
<rect x="11" y="7" width="1" height="1" fill="#5A3F28"/>
<rect x="12" y="7" width="1" height="1" fill="#5A3F28"/>
<rect x="13" y="7" width="1" height="1" fill="#5A3F28"/>
<rect x="14" y="7" width="1" height="1" fill="#5A3F28"/>
<rect x="15" y="7" width="1" height="1" fill="#5A3F28"/>
<rect x="16" y="7" width="1" height="1" fill="#5A3F28"/>
<rect x="17" y="7" width="1" height="1" fill="#5A3F28"/>
<rect x="18" y="7" width="1" height="1" fill="#5A3F28"/>
<rect x="19" y="7" width="1" height="1" fill="#5A3F28"/>
<rect x="20" y="7" width="1" height="1" fill="#5A3F28"/>
<rect x="21" y="7" width="1" height="1" fill="#5A3F28"/>
<rect x="22" y="7" width="1" height="1" fill="#5A3F28"/>
<rect x="23" y="7" width="1" height="1" fill="#5A3F28"/>
<rect x="24" y="7" width="1" height="1" fill="#5A3F28"/>
<rect x="25" y="7" width="1" height="1" fill="#5A3F28"/>
<rect x="26" y="7" width="1" height="1" fill="#5A3F28"/>
<rect x="27" y="7" width="1" height="1" fill="#5A3F28"/>
<rect x="28" y="7" width="1" height="1" fill="#5A3F28"/>
<rect x="29" y="7" width="1" height="1" fill="#5A3F28"/>
<rect x="30" y="7" width="1" height="1" fill="#241A12"/>
<rect x="31" y="7" width="1" height="1" fill="#241A12"/>
<!-- y=08 -->
<rect x="0" y="8" width="1" height="1" fill="#241A12"/>
<rect x="1" y="8" width="1" height="1" fill="#241A12"/>
<rect x="2" y="8" width="1" height="1" fill="#7A5636"/>
<rect x="3" y="8" width="1" height="1" fill="#7A5636"/>
<rect x="4" y="8" width="1" height="1" fill="#7A5636"/>
<rect x="5" y="8" width="1" height="1" fill="#7A5636"/>
<rect x="6" y="8" width="1" height="1" fill="#7A5636"/>
<rect x="7" y="8" width="1" height="1" fill="#7A5636"/>
<rect x="8" y="8" width="1" height="1" fill="#7A5636"/>
<rect x="9" y="8" width="1" height="1" fill="#7A5636"/>
<rect x="10" y="8" width="1" height="1" fill="#7A5636"/>
<rect x="11" y="8" width="1" height="1" fill="#7A5636"/>
<rect x="12" y="8" width="1" height="1" fill="#7A5636"/>
<rect x="13" y="8" width="1" height="1" fill="#5A3F28"/>
<rect x="14" y="8" width="1" height="1" fill="#7A5636"/>
<rect x="15" y="8" width="1" height="1" fill="#7A5636"/>
<rect x="16" y="8" width="1" height="1" fill="#7A5636"/>
<rect x="17" y="8" width="1" height="1" fill="#7A5636"/>
<rect x="18" y="8" width="1" height="1" fill="#7A5636"/>
<rect x="19" y="8" width="1" height="1" fill="#7A5636"/>
<rect x="20" y="8" width="1" height="1" fill="#7A5636"/>
<rect x="21" y="8" width="1" height="1" fill="#7A5636"/>
<rect x="22" y="8" width="1" height="1" fill="#7A5636"/>
<rect x="23" y="8" width="1" height="1" fill="#7A5636"/>
<rect x="24" y="8" width="1" height="1" fill="#7A5636"/>
<rect x="25" y="8" width="1" height="1" fill="#7A5636"/>
<rect x="26" y="8" width="1" height="1" fill="#7A5636"/>
<rect x="27" y="8" width="1" height="1" fill="#7A5636"/>
<rect x="28" y="8" width="1" height="1" fill="#7A5636"/>
<rect x="29" y="8" width="1" height="1" fill="#7A5636"/>
<rect x="30" y="8" width="1" height="1" fill="#241A12"/>
<rect x="31" y="8" width="1" height="1" fill="#241A12"/>
<!-- y=09 -->
<rect x="2" y="9" width="1" height="1" fill="#241A12"/>
<rect x="3" y="9" width="1" height="1" fill="#241A12"/>
<rect x="4" y="9" width="1" height="1" fill="#7A5636"/>
<rect x="5" y="9" width="1" height="1" fill="#7A5636"/>
<rect x="6" y="9" width="1" height="1" fill="#5A3F28"/>
<rect x="7" y="9" width="1" height="1" fill="#7A5636"/>
<rect x="8" y="9" width="1" height="1" fill="#7A5636"/>
<rect x="9" y="9" width="1" height="1" fill="#7A5636"/>
<rect x="10" y="9" width="1" height="1" fill="#7A5636"/>
<rect x="11" y="9" width="1" height="1" fill="#7A5636"/>
<rect x="12" y="9" width="1" height="1" fill="#7A5636"/>
<rect x="13" y="9" width="1" height="1" fill="#7A5636"/>
<rect x="14" y="9" width="1" height="1" fill="#7A5636"/>
<rect x="15" y="9" width="1" height="1" fill="#7A5636"/>
<rect x="16" y="9" width="1" height="1" fill="#7A5636"/>
<rect x="17" y="9" width="1" height="1" fill="#7A5636"/>
<rect x="18" y="9" width="1" height="1" fill="#7A5636"/>
<rect x="19" y="9" width="1" height="1" fill="#7A5636"/>
<rect x="20" y="9" width="1" height="1" fill="#7A5636"/>
<rect x="21" y="9" width="1" height="1" fill="#7A5636"/>
<rect x="22" y="9" width="1" height="1" fill="#7A5636"/>
<rect x="23" y="9" width="1" height="1" fill="#7A5636"/>
<rect x="24" y="9" width="1" height="1" fill="#7A5636"/>
<rect x="25" y="9" width="1" height="1" fill="#7A5636"/>
<rect x="26" y="9" width="1" height="1" fill="#7A5636"/>
<rect x="27" y="9" width="1" height="1" fill="#7A5636"/>
<rect x="28" y="9" width="1" height="1" fill="#241A12"/>
<rect x="29" y="9" width="1" height="1" fill="#241A12"/>
<!-- y=10 -->
<rect x="4" y="10" width="1" height="1" fill="#241A12"/>
<rect x="5" y="10" width="1" height="1" fill="#241A12"/>
<rect x="6" y="10" width="1" height="1" fill="#7A5636"/>
<rect x="7" y="10" width="1" height="1" fill="#7A5636"/>
<rect x="8" y="10" width="1" height="1" fill="#7A5636"/>
<rect x="9" y="10" width="1" height="1" fill="#7A5636"/>
<rect x="10" y="10" width="1" height="1" fill="#7A5636"/>
<rect x="11" y="10" width="1" height="1" fill="#7A5636"/>
<rect x="12" y="10" width="1" height="1" fill="#7A5636"/>
<rect x="13" y="10" width="1" height="1" fill="#7A5636"/>
<rect x="14" y="10" width="1" height="1" fill="#7A5636"/>
<rect x="15" y="10" width="1" height="1" fill="#7A5636"/>
<rect x="16" y="10" width="1" height="1" fill="#7A5636"/>
<rect x="17" y="10" width="1" height="1" fill="#7A5636"/>
<rect x="18" y="10" width="1" height="1" fill="#7A5636"/>
<rect x="19" y="10" width="1" height="1" fill="#7A5636"/>
<rect x="20" y="10" width="1" height="1" fill="#7A5636"/>
<rect x="21" y="10" width="1" height="1" fill="#7A5636"/>
<rect x="22" y="10" width="1" height="1" fill="#5A3F28"/>
<rect x="23" y="10" width="1" height="1" fill="#7A5636"/>
<rect x="24" y="10" width="1" height="1" fill="#7A5636"/>
<rect x="25" y="10" width="1" height="1" fill="#7A5636"/>
<rect x="26" y="10" width="1" height="1" fill="#241A12"/>
<rect x="27" y="10" width="1" height="1" fill="#241A12"/>
<!-- y=11 -->
<rect x="6" y="11" width="1" height="1" fill="#241A12"/>
<rect x="7" y="11" width="1" height="1" fill="#241A12"/>
<rect x="8" y="11" width="1" height="1" fill="#5A3F28"/>
<rect x="9" y="11" width="1" height="1" fill="#5A3F28"/>
<rect x="10" y="11" width="1" height="1" fill="#5A3F28"/>
<rect x="11" y="11" width="1" height="1" fill="#5A3F28"/>
<rect x="12" y="11" width="1" height="1" fill="#5A3F28"/>
<rect x="13" y="11" width="1" height="1" fill="#5A3F28"/>
<rect x="14" y="11" width="1" height="1" fill="#5A3F28"/>
<rect x="15" y="11" width="1" height="1" fill="#5A3F28"/>
<rect x="16" y="11" width="1" height="1" fill="#5A3F28"/>
<rect x="17" y="11" width="1" height="1" fill="#5A3F28"/>
<rect x="18" y="11" width="1" height="1" fill="#5A3F28"/>
<rect x="19" y="11" width="1" height="1" fill="#5A3F28"/>
<rect x="20" y="11" width="1" height="1" fill="#5A3F28"/>
<rect x="21" y="11" width="1" height="1" fill="#5A3F28"/>
<rect x="22" y="11" width="1" height="1" fill="#5A3F28"/>
<rect x="23" y="11" width="1" height="1" fill="#5A3F28"/>
<rect x="24" y="11" width="1" height="1" fill="#241A12"/>
<rect x="25" y="11" width="1" height="1" fill="#241A12"/>
<!-- y=12 -->
<rect x="8" y="12" width="1" height="1" fill="#241A12"/>
<rect x="9" y="12" width="1" height="1" fill="#241A12"/>
<rect x="10" y="12" width="1" height="1" fill="#5A3F28"/>
<rect x="11" y="12" width="1" height="1" fill="#7A5636"/>
<rect x="12" y="12" width="1" height="1" fill="#5A3F28"/>
<rect x="13" y="12" width="1" height="1" fill="#7A5636"/>
<rect x="14" y="12" width="1" height="1" fill="#5A3F28"/>
<rect x="15" y="12" width="1" height="1" fill="#7A5636"/>
<rect x="16" y="12" width="1" height="1" fill="#5A3F28"/>
<rect x="17" y="12" width="1" height="1" fill="#7A5636"/>
<rect x="18" y="12" width="1" height="1" fill="#5A3F28"/>
<rect x="19" y="12" width="1" height="1" fill="#7A5636"/>
<rect x="20" y="12" width="1" height="1" fill="#5A3F28"/>
<rect x="21" y="12" width="1" height="1" fill="#7A5636"/>
<rect x="22" y="12" width="1" height="1" fill="#241A12"/>
<rect x="23" y="12" width="1" height="1" fill="#241A12"/>
<!-- y=13 -->
<rect x="10" y="13" width="1" height="1" fill="#241A12"/>
<rect x="11" y="13" width="1" height="1" fill="#241A12"/>
<rect x="12" y="13" width="1" height="1" fill="#7A5636"/>
<rect x="13" y="13" width="1" height="1" fill="#5A3F28"/>
<rect x="14" y="13" width="1" height="1" fill="#7A5636"/>
<rect x="15" y="13" width="1" height="1" fill="#5A3F28"/>
<rect x="16" y="13" width="1" height="1" fill="#7A5636"/>
<rect x="17" y="13" width="1" height="1" fill="#5A3F28"/>
<rect x="18" y="13" width="1" height="1" fill="#7A5636"/>
<rect x="19" y="13" width="1" height="1" fill="#5A3F28"/>
<rect x="20" y="13" width="1" height="1" fill="#241A12"/>
<rect x="21" y="13" width="1" height="1" fill="#241A12"/>
<!-- y=14 -->
<rect x="12" y="14" width="1" height="1" fill="#241A12"/>
<rect x="13" y="14" width="1" height="1" fill="#241A12"/>
<rect x="14" y="14" width="1" height="1" fill="#5A3F28"/>
<rect x="15" y="14" width="1" height="1" fill="#7A5636"/>
<rect x="16" y="14" width="1" height="1" fill="#5A3F28"/>
<rect x="17" y="14" width="1" height="1" fill="#5A3F28"/>
<rect x="18" y="14" width="1" height="1" fill="#241A12"/>
<rect x="19" y="14" width="1" height="1" fill="#241A12"/>
<!-- y=15 -->
<rect x="14" y="15" width="1" height="1" fill="#241A12"/>
<rect x="15" y="15" width="1" height="1" fill="#241A12"/>
<rect x="16" y="15" width="1" height="1" fill="#241A12"/>
<rect x="17" y="15" width="1" height="1" fill="#241A12"/>
</svg>
